<svg version="1.1" id="Layer_1" xmlns="http://www.w3.org/2000/svg" x="0px" y="0px" viewBox="0 0 841.9 358.5" style="enable-background:new 0 0 841.9 358.5" xml:space="preserve"><style>.st0{fill:#0F539E}</style><g id="surface1"><path class="st0" d="M130.2,142.8c2.2-2,2.6-3.1,2.3-6.1C131.3,138.7,129.9,140.3,130.2,142.8 M124.6,158.2c-1.7,2.5-3.5,4-2.1,6.9 C123.8,163,124.8,161.2,124.6,158.2 M128.8,146.4c-2.3,2.6-3.4,5.9-2.9,9.3C127.4,152.6,128.8,149.9,128.8,146.4 M115,189.4 c1.4-2.5,2.9-4.9,2.4-8.9C115.7,183.9,114.5,186.4,115,189.4 M114.4,194.6c-3.2,1.1-8.5,12.8-7.7,16.8 C111,206.4,112.1,200.4,114.4,194.6 M119,185.2c-3.2,7.7-4.4,13.2-3.7,15.6c0.2-0.1,0.4-0.2,0.5-0.4c1.7-2.2,3.3-4.4,4.9-6.6 C124.5,188.8,124.5,188.8,119,185.2 M168.1,132.9c0,3.2-0.1,6.2,0.1,9.1c0.1,1.3,0.7,3,2.5,1.6c3.2-2.5,6.3-5.2,9.2-7.9 c1.1-1,1.2-2.6-0.9-2.7C175.4,132.8,171.8,132.9,168.1,132.9 M150.8,81.3c-0.3-0.1-0.7-0.1-1-0.2c-3.3,12.7-6.6,25.5-10,38.4h14.6 C153.2,106.6,152,93.9,150.8,81.3 M105.8,239.1c-5.8,13.9-12.3,27.2-15.6,42.6c2.9-1.6,4.3-3.6,5.9-5.3 c7.8-8.2,15.6-16.5,23.4-24.7c1.3-1.3,2.2-2.8,0.2-4.1C115.4,244.8,110.9,242.2,105.8,239.1 M161.3,172c-1-0.2-1.4,0.2-1.8,0.6 c-4.9,5.1-9.7,10.2-14.7,15.1c-1.8,1.8-1.6,2.9,0,4.6c6.3,6.8,12.5,13.7,18.7,20.5c3.1,3.4,6.2,6.7,9.3,10.1c1.3-1.3,1-2.4,0.6-3.6 c-0.9-2.9-1.9-5.9-2.7-8.8c-3-11-7.5-21.6-7.8-33.3C162.9,175.5,162.7,173.5,161.3,172 M74.7,130.7c-0.3,3,2.7,2.8,4.1,4 c10.3,8.6,20.8,17,31.2,25.4c1.1,0.9,2.2,1.8,3.9,1.1c3.4-10,6.8-20,10.3-30.5H74.7z M184.9,289c0.5-4.6-0.9-8.8-1.9-13.1 c-3.5-14-8.9-27.1-17.5-38.8c-1.4-1.9-2.6-2.6-4.8-1c-5.3,3.9-10.8,7.6-16.3,11.3c-2.2,1.5-2.9,2.7-0.4,5 c12.8,11.6,25.4,23.4,38.1,35.2C182.8,288.2,183.3,289.1,184.9,289 M156.1,223.4c-0.1-0.9-0.5-1.7-1.1-2.3 c-5.5-6.2-10.9-12.4-16.5-18.5c-2.6-2.8-4.8-2.7-7.1,0.2c-5.7,7.2-11.3,14.4-17,21.5c-1.4,1.8-1.3,3.3,0.4,4.8 c4.4,3.8,8.7,7.8,13.1,11.6c1.2,1,2.5,1.8,4.1,0.7c7.5-5.4,15.1-10.7,22.6-16.1C155.4,225,156.2,224.5,156.1,223.4 M133.4,181.2 c8.4-8.8,16.5-17.3,24.7-25.7c0.9-0.9,1.1-1.8,1-2.9c-0.5-5.1-0.8-10.3-1.5-15.4c-0.4-3.2-2.2-5.1-5.7-5.9c-4.3-1-8.5-0.1-12.8-0.3 c-1.4-0.1-1.9,0.8-2.3,1.9c-4.4,11.8-8.8,23.7-13.2,35.5c-0.4,1-0.6,1.8,0.2,2.7C126.9,174.1,129.8,177.3,133.4,181.2 M157.2,35.7 c4.3,3.4,4.9,8.2,4.2,13c-1.9,13-0.2,25.9,0.6,38.9c0.7,11.1,2,22.1,3.1,33.3c10.3,0.9,20.3,1.9,30.4,2.7c11,1,21.9,1.8,32.9,2.8 c3.4,0.3,4.4,1.8,3.7,5.1c-0.4,1.8-1.2,3.3-2.1,4.8c-1.5,2.5-3.2,3.6-6.5,2.8c-9.1-2.3-18.5-2.5-27.9-2.5c-0.6,0-1.3-0.1-1.9,0.5 c-0.1,1.5,1.6,1.9,2,3.4c-0.9,1.9-2.8,3.1-4.4,4.5c-5.7,4.7-11.9,8.7-17.2,13.9c-1.5,1.5-2.1,2.8-1.6,4.9 c12.4,48.4,22.1,97.3,33.3,146c0,1,0.7,1.9,0.2,3.1c-4,0-8-0.2-12.1,0.1c-2.9,0.2-5.1-0.3-6.2-3.3c-1.1-3-3.2-5.2-5.4-7.4 c-3.1-2.9-6.2-5.6-9.3-8.4c-12.5-11.3-25-22.6-37.4-34c-2-1.9-3.7-2.1-5.7-0.4c-0.8,0.7-1.8,1.3-2.6,2 c-16,13.9-28.6,30.8-40.6,48.1c-2,2.5-3.9,5.1-5.4,7.9c-0.3,0.4-0.7,0.8-1,1.3c-3.6,5.7-3.4,5-8.1,0.9c-1.5-1.3-3.1-2.5-4.4-4 c-3.1-3.4-4.5-7-2.6-11.7c16.5-41.5,28.9-84.4,42.1-127c0.8-2.6,0.4-4.1-1.7-5.8C94.6,162.5,83.9,153.6,73,145 c-9-7.1-19.3-11.4-30.8-12.1c-3.3-0.2-6.4-1.3-9.4-2.6v-6c3.2-4.5,7.6-5.6,12.8-5.1c3.6,0.4,7.2,0.3,10.9,0.3 c22.2,0.3,44.5,0.4,66.7,0.8c3.4,0.1,4.8-1,5.8-4.2c4.2-14.1,7.7-28.4,11-42.8c2.2-9.6,5.6-19.1,5.9-29c0.1-3.6,0.8-6.6,3.9-8.7"/><path d="M81.2,317.4c1.6-2.8,3.4-5.4,5.4-7.9c1.3,0.1,2.6,0.2,3.9,0.2c24.4,0,48.8,0,73.3,0c7.9,0,15.8-0.1,23.8-0.1 c1.1,3,3.2,3.5,6.2,3.3c4-0.3,8.1-0.1,12.1-0.1c0.5-1.2-0.2-2.1-0.2-3.1c201.4,0,402.7,0,604.2,0v7.3c-1.1,0.8-2.3,0.4-3.5,0.4 c-240.7,0-481.5,0-722.2,0C83.2,317.5,82.2,317.5,81.2,317.4" style="fill:#FCDD23"/><path class="st0" d="M366.9,216c-0.1,2.1-0.6,3.8,1.2,4.9c0.5,0.3,1.4,0.1,1.6-0.7C370.1,218.2,368.8,217.2,366.9,216 M411.5,205.9 c-1.3-8.1-3.1-9.4-11.4-7.8c-3.9,0.7-7.7,1.8-10.2,5.7c2.7,1.6,5.5,2.4,8.3,2.9c-0.4,1.3-1.8,0.8-2.5,1.7c-0.4,0.7,0.1,1.5,0.5,2 c3.9,5,8.1,9.9,13.3,13.7c1.6,1.2,3.1,0.9,4.5-0.3c1.7-1.4,2.9-3.1,3-5.3c0.3-5.7,0.7-11.5-0.3-17.2c-0.6-3.2,0.4-5.2,3.7-7.8 c0,7.8,0,14.7,0,21.6c0,2.6,0.3,5.1,1.6,7.3c1.1,1.8,2.5,2.8,4.7,2.3c2.1-0.5,2.9-1.9,2.9-4.1c-0.1-7.5,0.6-15-0.6-22.4 c-0.4-2.9,1.5-4,3.3-6.1c0.8,4.5,1,8.7,2.3,13c-2.1-0.5-2.3,0.6-2.2,2.2c0.2,4.4,0.3,8.8,0.6,13.2c0.1,2.2-0.4,4.1-1.6,5.9 c-3.3,4.8-7.9,4.8-11.1,0c-0.5-0.8-1.2-1.6-1.7-2.3c-0.3,0.1-0.6,0.2-0.7,0.3c-5.5,6.3-8.6,6.4-14.4,0.6c-1.5-1.5-2.6-3.2-4.3-5.3 c-0.7,1.6-1,2-1.1,2.5c-2.1,7.8-8.6,9.9-15,4.8c-0.8-0.7-1.6-1.5-2.3-2.4c-1.7-1.9-3.5-3.7-6.2-2c-1.9,1.2-2.1,5.8-0.3,7.8 c1.1,1.2,1.8,2.4,1.7,4.1c-0.1,2.5-1.2,2.9-3.2,1.6c-3.5-2.3-6.9-4.8-8.7-9c-24.3,6.2-48.7,8.1-73.3,1c-4,6.5-9.5,11.1-17.1,12.9 c-5.6,1.4-11.1,0.9-16.5-1.1c5.6-0.4,11.2-1,16.6-2.6c3.9-1.2,7.7-2.7,10.8-5.5c3.1-2.8,3.2-4.2,0.8-7.6c-0.8-1.1-1.6-2.1-2.5-3.2 c0.9-1.2,1.7-2.4,2.6-3.6c5.5,6.8,13.5,7.7,21.2,8.8c16.9,2.4,33.8,2.4,50.4-2.2c0.4-0.1,0.8-0.3,1.3-0.4c3.9-0.7,6.7-2.5,6.7-6.9 c0-0.3,0.2-0.6,0.3-0.9c0.8-2,1.2-4.9,3.8-4.7c3.1,0.3,2.5,3.5,2.7,5.6c0.2,2.5-0.7,4.7-2.5,6.6c-0.7,0.7-1.4,1.5-0.9,2.6 c0.2,0.3,0.7,0.7,1,0.7c1.2-0.1,1.5-1.2,1.7-2.1c0.6-2.3,1.7-4.3,3.3-6c2.3-2.5,4.9-2.4,6.9,0.4c1.6,2.2,3.2,4.3,5.7,5.4 c2.1,1,4.3,1,6.2-0.6c1.8-1.6,1.3-3.6,0.6-5.5c-1.3-3.6-4-6-6.7-8.4c-6.1-5.4-6-6.9,0.9-11c4.2-2.5,8.5-4.7,13.4-5.5 c1.4-0.2,2.9-0.4,4.3-0.3C412.8,193.7,415.6,199.8,411.5,205.9"/><path class="st0" d="M621.6,217.2c-7.9-5.2-17.9-2.3-20.4,5.2C608.3,222.6,614.5,219.9,621.6,217.2 M597.7,194.2 c-0.3,4.1,2.7,7.2,1.4,11.6c-1.1,3.8-0.2,8.1-0.2,12.2c2.4,0.3,3.4-1.4,4.6-2.5c6.1-5.5,13.2-6.7,19-3.1c3.4,2.1,3.6,4.7,0.4,7.3 c-4,3.2-8.8,4.9-13.8,6.1c-5.5,1.4-11.1,1.7-16.6-0.3c-1.8-0.7-3.4,0-5.1,0.5c-28.7,8.1-57.6,9.5-86.8,2.9c-4.3-1-7.9-3.3-11.2-6.1 c-3.3-2.8-5.6-2.8-9.2,0.3c0.9,1.5,2.4,1.6,3.9,2c2.1,0.5,3.9,1.7,4.4,4c0.5,2.2-0.8,3.8-2.3,5.2c-2.1,1.9-4.6,3-7.3,3.7 c-5.5,1.5-11,2.1-16.7,1.9c-5.7-0.1-9.1-4.9-7.2-10.2c1.1-3,2.4-6.1,6.3-7.7c-1.4,2.3-2.8,4-3.4,6.1c-0.8,3-0.1,5.2,2.8,6.5 c2.7,1.2,5.4,1.6,8.4,1.5c4.7-0.3,12.5-2.8,15.2-5c-0.5-1.8-2.2-1.8-3.4-1.9c-5.1-0.6-7-4.6-2.4-8.4c1.2-1,2-2.3,3.1-3.4 c2.6-2.5,6.2-2.9,8.6-0.3c6.2,6.8,14.5,8.6,22.9,9.6c16.5,2,33.2,2.6,49.8,0.7c9.1-1,18.1-2.5,26.6-6.1c2.7-1.2,4.9,1.1,7.7,0.3 c0-7.9-0.3-15.8-1.6-23.7C595.2,196,595.5,195.1,597.7,194.2"/><path class="st0" d="M755.8,223.5c0.5,0.5,0.8,0.9,1.2,1.3c2.5,2.6,5.3,3.2,7.4,1.6c1.6-1.2,1.5-4.6-0.2-7.3 c-0.9-1.4-2.1-2.5-3.5-3.5c-3-2.2-6.1-4.4-9-6.7c-3.2-2.4-3.3-4.8-0.6-7.7c5.2-5.6,20.7-9.1,27.9-6.3c3.2,1.3,4,5.4,1.7,9.2 c-1.5-5.4-2.2-5.9-8.2-5.3c-9.4,0.9-13.6,2.1-17.9,5.2c2.3,2.7,5.3,2.5,8.9,2.4c-2.2,2.3-1.2,3.5,0.7,5c4.7,3.7,8.5,8.3,12.3,12.9 c2.8,3.5,6.2,3.9,9.1,1.4c1.2-1,1.8-2.1,1.7-3.7c-0.2-7.9,0-15.9-1.5-23.7c-0.4-2.1,0.6-3.1,2.3-4.1c1.6,3.7,1.8,7.8,3.8,11.6 c-1.6,0.4-2.1,1.2-1.9,2.8c0.5,5,0.5,10.1,0.1,15.2c-0.2,2.8,1.3,3.9,5.6,4.4c-1.2,4.7-3.1,5.6-7.1,3.1c-1.5-1-3-1.6-4.5-0.5 c-3.3,2.3-6.1,1.1-8.6-1.3c-2.4-2.3-4.6-4.9-6.9-7.4c-1.2,0.9-0.7,2-0.8,2.9c-0.3,6.9-5.3,9.9-11.2,6.4c-2.1-1.2-3.6-1.1-5.7-0.3 c-10.2,4-20.4,4.8-29.9-1.9c-1.3-0.9-2.5-0.5-3.8-0.1c-8.1,2.2-16.3,3.9-24.7,3.7c-3.1-0.1-6.2-0.5-8.9-2c-2.5-1.3-4.7-3-4.5-6.3 c0.2-3.7,1.9-6,5.6-7.5c-0.5,1.8-1.2,3.3-1.5,5c-0.6,2.5,0.6,4.2,3,4.7c12.1,2.4,24,3,35.3-3.7 C732.5,231.7,744.1,231.1,755.8,223.5"/><path class="st0" d="M364.9,271v21.2c-1.3,0.4-2.5,0.4-3.7,0v-26.3c2.8-0.8,4.8-0.3,6.5,2.3c4.1,6,8.5,11.7,13.1,18V266 c1.5-0.7,2.6-0.6,3.9-0.2v26.3c-2.9,1-4.7,0-6.3-2.4C374.2,283.6,369.7,277.6,364.9,271"/><path class="st0" d="M644.4,195.2c0.9,4.3,1.6,8.5,3.4,12.6c-1.8,0.4-1.7,1.7-1.6,3.2c0.3,3.7,0.5,7.5,0.6,11.2 c0.1,3.5-1.6,6.1-4.7,7.2c-2.5,0.9-4.2,2.5-6,4.2c-8.1,7.4-17.7,8.7-28.1,6.9c-0.9-0.2-1.9-0.5-2.8-0.7c0.2-1.7,1.4-1.3,2.3-1.3 c6.1-0.3,12.1-0.7,18-2.4c3.3-0.9,6.5-2,8.8-4.9c-0.4-0.2-0.6-0.5-0.9-0.5c-2.1-0.2-4.2-0.4-4.5-3.3c-0.2-2.6,0.9-4.7,3.1-5.8 c2.3-1.1,4.5-0.4,6.3,1.6c0.9,1,1.2,3.2,3.4,2.2c1.9-0.9,2-2.8,1.9-4.6c-0.2-5.9-0.7-11.9-1.8-17.7 C640.8,198.7,640.8,198.7,644.4,195.2"/><path class="st0" d="M238.4,279c0,6.3,4.1,10.9,9.9,10.9c5.8,0,10-4.4,10.1-10.8c0.1-6.4-4.2-11.3-10.1-11.2 C242.6,268.1,238.5,272.7,238.4,279 M248.7,265.1c8.6,0,14.2,5.5,14.2,13.9c0,8.5-5.9,14.1-14.9,14.1c-8.4,0-14.1-5.6-14.1-13.7 C233.9,270.9,239.9,265.1,248.7,265.1"/><path class="st0" d="M550.8,282.9c0-5-1.8-7.2-6-7.2c-4,0-6.6,2.7-6.7,7c-0.1,4.3,2.5,7.2,6.4,7.3 C548.5,290.1,550.8,287.5,550.8,282.9 M555,292.2c-1.9,0.6-3.7,0.9-4-1.9c-5.9,3.7-11.3,3.5-14.8-0.4c-3.3-3.6-3.3-9.8-0.1-13.7 c3.3-4,9-4.6,14.7-1.3v-10.6h4.3"/><path class="st0" d="M619.4,289.6h12.8c0.9,0.9,0.6,1.8,0.3,2.8h-17.5v-26.6h16.6c0.8,0.7,0.4,1.6,0.4,2.8h-12.6v8.4h11.1 c1.1,1.1,0.6,1.9,0.6,3h-11.6C619,283.1,619.3,286.2,619.4,289.6"/><path class="st0" d="M443.1,282.7c-0.1,4.2,2.9,7.5,6.7,7.5c3.7,0,6.6-3.1,6.7-7.2c0.1-4.5-2.5-7.5-6.5-7.5 C445.9,275.5,443.1,278.4,443.1,282.7 M449.4,293c-6.3-0.1-10.8-4.3-10.7-10.1c0.1-6.1,5-10.5,11.7-10.3 c6.5,0.2,10.6,4.2,10.6,10.1C460.9,289.1,456.4,293.1,449.4,293"/><path class="st0" d="M503.7,283c-2.4-0.3-4.5-0.1-6.6,0.7c-1.9,0.8-3,2.1-2.4,4.1c0.5,2,2.2,2.6,4.2,2.4 C502.6,289.9,504.1,287.8,503.7,283 M503.8,279.9c-1.1-4.2-3.5-5.3-8.7-3.9c-1.5,0.4-2.8,1.1-3.1-1.2c3.3-2.5,9.4-2.9,12.7-0.9 c2.7,1.6,3.3,4.2,3.4,7.1c0.1,1.9,0,3.7,0,5.6c0,1.9,0,3.7,0,5.7c-1.5,0.1-3.3,1.1-4.1-1.6c-2.4,1.5-5,2.6-7.8,2.3 c-2.9-0.4-5.4-1.5-5.9-4.8c-0.5-3.2,1.2-5.2,4-6.5C497.2,280.3,500.5,280.4,503.8,279.9"/><path class="st0" d="M403,282.9c-2.4-0.2-4.6-0.1-6.6,0.9c-1.6,0.8-2.7,2-2.2,3.9c0.5,2,2.1,2.6,4.1,2.5 C402.1,290,403.7,287.8,403,282.9 M391.4,274.5c2.3-1.4,4.6-1.7,6.9-1.8c6.4-0.3,9.4,2.6,9.5,9c0,3.5,0,7,0,10.7 c-1.7,0.2-3.5,1-4.2-1.5c-2.7,1.8-5.6,2.8-8.8,2.1c-2.5-0.6-4.5-1.8-4.8-4.7c-0.4-2.9,0.9-4.9,3.4-6.2c3-1.6,6.4-1.5,9.9-2 c0.2-2.6-1.1-3.9-3.4-4.3c-2-0.3-4-0.2-5.8,0.6C392.2,277,391.9,275.9,391.4,274.5"/><path class="st0" d="M575.8,280.6c-0.5-3.7-2.2-5.3-5.2-5.4c-3.2-0.1-5.3,1.9-5.8,5.4H575.8z M579.9,283.7h-15.1 c-0.3,5.6,4,7.4,13.2,5.6c1.1,1.7,0.9,2.7-1.3,3.1c-3.5,0.7-7,1-10.4-0.2c-4.8-1.7-7.2-6.5-6-11.7c1.3-5.3,6-8.4,11.7-7.8 c5.1,0.5,8.2,4.1,8.1,9.5C580.2,282.5,580.1,282.9,579.9,283.7"/><path class="st0" d="M330.5,280.5h11.3c-0.2-3.5-2.1-4.9-5.1-5.2C333.6,275,331.5,276.9,330.5,280.5 M345.7,283.6h-15.1 c-0.2,5.7,4,7.4,13.3,5.7c1.1,1.7,0.9,2.7-1.3,3.1c-3.5,0.7-7,1-10.4-0.2c-4.8-1.7-7.2-6.5-5.9-11.7c1.3-5.3,6-8.4,11.7-7.8 c5.1,0.6,8.2,4.2,8.1,9.5C346,282.5,345.9,282.9,345.7,283.6"/><path class="st0" d="M663.1,280.8c-0.7-4-2.5-5.6-5.6-5.5c-3.1,0.1-5.1,2.1-5.4,5.4c0.5,0.1,1.1,0.2,1.6,0.2 C656.7,280.8,659.7,280.8,663.1,280.8 M667,283.7h-15.5c0.9,5.8,4.8,7.4,13.6,5.5c1,1.5,1.3,2.6-1.1,3.1c-3,0.6-6.1,1-9.1,0.2 c-4.4-1.1-7-3.8-7.6-7.7c-0.6-4.6,1.2-8.8,4.7-10.8c3.7-2.2,9.2-2,12.2,0.5C666.9,276.9,667.7,280,667,283.7"/><path class="st0" d="M797.3,280.7c-0.8-3.9-2.7-5.6-5.8-5.4c-3.1,0.2-5,2.1-5.4,5.4H797.3z M801.3,283.6h-15.5 c0.6,5.9,3.9,7.2,13.6,5.8c1.1,1.4,1.2,2.5-1,3c-3,0.6-6.1,1-9.1,0.3c-4.3-1-7.1-3.8-7.7-7.6c-0.7-4.8,1.2-8.9,4.9-11 c3.6-2,9-1.9,11.9,0.5C801.1,276.8,801.9,279.8,801.3,283.6"/><path class="st0" d="M258.5,191.3c1.2,9,2.3,16.9,3.3,24.9c0.8,6.7,2.5,8,9.5,7.1c0.6-2.7-0.7-5-2.1-7.4c0.6-0.9,1.2-1.9,1.9-3 c1.6,1.6,2.3,3.6,2.9,5.5c1.1,3.1,0.8,6.1-1.8,8.5c-1.8,1.6-7,1.6-9.5,0.2c-1-0.6-1.6-1.4-1.8-2.6c-1.8-9.3-3.1-18.7-6.1-27.7 C254.1,194.6,257,193.6,258.5,191.3"/><path class="st0" d="M470.2,292.4h-3.9v-19c1.6-0.4,3.4-0.9,3.9,2c3.1-2.3,6.3-3.4,10-2.2c2.9,0.9,4.8,2.9,5,5.9 c0.3,4.4,0.1,8.8,0.1,13.1c-1.4,0.5-2.5,0.4-4.1,0.1c0-3.3,0-6.7,0-10.1c-0.1-4.3-1.7-6.3-5-6.4c-3.6-0.1-5.8,2.3-6,6.4 c-0.1,1.7,0,3.3,0,5C470.2,288.7,470.2,290.4,470.2,292.4"/><path class="st0" d="M278.6,273.4c0.3,0.8,0.3,1.6-0.1,2.4c-1.6,0.1-3.2,0.2-5.1,0.4V292c-1.5,0.8-2.8,0.5-4.3,0.3v-15.6 c-1.1-1.3-4.4,0-3-3.3c0.8-0.1,1.7-0.2,2.6-0.4c1.2-8,4.3-10.3,11.8-8.8c0.6,0.9,0,1.6-0.2,2.4c-5.9,0-7,0.9-6.8,6.2 C275,273.6,276.7,272.8,278.6,273.4"/><path class="st0" d="M751.6,273.5c0.6,1.1-0.1,1.8-0.5,2.7c-7-1-13.7-1.1-12.2,9.1c0.6,4.1,5.4,5.5,12.2,4c1,1.7,1.3,2.8-1.3,3.3 c-3,0.6-5.9,0.7-8.8-0.2c-3.9-1.2-6.4-3.8-6.9-8c-0.5-4.2,0.9-7.6,4.6-9.8C742.9,272.2,747.2,272,751.6,273.5"/><path class="st0" d="M687.8,289.2c0.4,1.3,1.1,2.2-0.1,3c-4.9,3.2-14.7-0.3-16.5-5.9c-2.2-6.7,2-12.5,9.8-13.6 c1.8-0.2,3.5,0,5.2,0.3c2.4,0.4,2.8,1.3,1.3,3.3c-4.1-0.8-8.4-1.6-11.3,2.6c-1.7,2.5-1.8,5.3-0.1,7.8 C679,291,683.4,290.2,687.8,289.2"/><path class="st0" d="M322.3,289.3c1.2,1.9,0.9,2.9-1.3,3.3c-3,0.6-5.9,0.7-8.8-0.2c-3.8-1.2-6.2-3.7-6.8-7.7 c-0.6-4.3,0.8-7.9,4.6-10.1c4.1-2.4,8.5-2.6,12.8-1c0.6,1.2-0.4,1.8-0.4,2.6c-7.2-0.9-14-1.1-12.4,9.1 C310.8,289.4,315.6,290.7,322.3,289.3"/><path class="st0" d="M768.3,276.3c-1.4-0.7-4.2,0.5-3.1-2.8c0.8-0.7,2.1,0,3.2-0.6c-0.5-3,0.9-4.3,4.1-4c0.1,1.4,0.2,2.7,0.3,4.1 c5.7,0.7,5.7,0.7,5.4,3c-1.7,0.1-3.4,0.2-5.4,0.3c0,3.8-0.2,7.6,0,11.2c0.2,3.2,2.9,2.3,4.9,2.5c1,1.9,0.5,2.9-1.8,3.1 c-5,0.5-7.5-1.6-7.6-6.6c0-3.1,0-6.1,0-9.2C768.5,276.9,768.4,276.7,768.3,276.3"/><path class="st0" d="M294,266.9c-5.5-0.6-6.8,0.6-7.1,6.1c1.7,0.1,3.4,0.2,5.1,0.3c0.4,2.2,0.4,2.2-5,3.1V292 c-1.4,0.7-2.6,0.3-4.2,0.4v-15.7c-1-1.3-2.2-0.5-3-1.1c-1.1-2.8,1-2.4,2.5-2.6c0.8-1,0.4-2.2,0.6-3.2c0.9-4.5,6.3-7.6,10.5-5.9 C295.1,264.6,294,265.7,294,266.9"/><path class="st0" d="M414.8,276.6c-1.4-1-4.5,0.2-3.2-3.2c0.9-0.1,1.8-0.2,3.1-0.4c-0.3-3,1.2-4.5,4.4-4.2c0.1,1.3,0.1,2.6,0.2,4 c1.7,0.9,3.6-0.1,5.8,0.7c-0.2,4.5-4.3,1.1-5.9,3.5c0,2.7-0.1,6.2,0,9.7c0.1,2.7,0.8,3,5.1,3.1c0.8,1.9,0.5,3-2,3.2 c-4.9,0.3-7.2-1.6-7.5-6.5c-0.1-1.8,0-3.5,0-5.3C414.8,279.6,414.8,278,414.8,276.6"/><path class="st0" d="M694.9,276.4c-1.7-0.8-4.5,0.5-3.6-2.8c0.9-0.8,2.2-0.1,3.3-0.7c0.7-0.8,0-2,0.5-3.2c1-0.7,2.3-0.8,3.7-1.1 c0.1,1.5,0.2,2.9,0.3,4.4h5.2c0.7,2.4,0.7,2.4-5.3,3.3c0,3.5-0.1,7.1,0,10.7c0.2,3.3,2.8,2.8,5,2.8c1.1,2.1,0.6,3-1.8,3.2 c-5,0.5-7.3-1.6-7.4-6.7C694.9,283,694.9,279.7,694.9,276.4"/><path class="st0" d="M801.3,232.1c0.4-4.2,0.9-8.5,0.3-12.7c-0.7-6-1.3-12-2.4-18c-0.5-2.9,0.7-4.5,2.9-6.2c1.2,4.3,1.4,8.6,4,12.4 c-1.1,0.3-1.8,0.5-2.6,0.8C804.4,216.6,805.8,224.6,801.3,232.1"/><path class="st0" d="M595.2,264.1c1.5-0.1,2.7-0.3,4,0.3v27.8c-1.4,0.5-2.6,0.4-4,0.1"/><path class="st0" d="M518.7,292.2c-1.4,0.5-2.6,0.4-4.1,0v-27.8c1.4-0.5,2.6-0.5,4.1,0"/><path class="st0" d="M654.6,232.3c0.3-6.4,1-12.6,0.6-18.9c-0.3-4.2-0.6-8.3-1.6-12.4c-0.8-3.2-0.8-3.2,2.3-5.4 c1.1,4,1.6,8.1,3.9,11.4c-0.2,1.3-1.5,0.2-2,1.7c0.4,6.9,2.1,14.5-0.9,22C656.6,231.5,656.2,232.4,654.6,232.3"/><path class="st0" d="M232.8,224.1c4-1.9,8.7-2.2,12.2-5.8c-1.4,0-2.7,0-4.1,0c-1.5,0-2.6-0.7-2.7-2.3c-0.2-5.4,6.7-10.1,11.9-8.2 c-0.5,4.5-0.7,4.5-4.9,3.3c-2.1-0.6-3,0.5-2.7,2.8c0.5,0.1,0.9,0.2,1.3,0.2c1.7,0.1,3.8-0.3,4.4,2c0.6,2.3-0.6,4.1-2.3,5.4 C242.1,224.6,237.6,225,232.8,224.1"/><path class="st0" d="M709.4,273.4c2-0.5,3.6-0.6,3.9,2.1c2.2-1.7,4.2-3.4,6.9-2.8c0.7,1,0.5,2,0.3,3c-6.4,1.7-7,2.5-7,9.3 c0,2.4,0,4.8,0,7.3h-4.1"/><path class="st0" d="M641.9,292.2c-1.3,0.3-2.4,0.4-3.7-0.1v-27.7c1.1-0.8,2.3-0.3,3.7-0.4"/><path class="st0" d="M429.6,273.3h3.9v18.9c-1.2,0.6-2.5,0.3-3.9,0.1"/><path class="st0" d="M724.9,292.2v-18.9h4.1v18.9C727.5,292.6,726.2,292.6,724.9,292.2"/><path class="st0" d="M756.8,273.3h4v18.9c-1.3,0.5-2.5,0.4-4,0"/><path class="st0" d="M296.2,273.2h3.7v18.9c-1.2,0.4-2.4,0.3-3.7,0"/><path class="st0" d="M743.8,213.1c2.5,2.1,4.6,2.6,6.6-0.4c1.2,1.4,2.3,2.6,3.6,4.1c-1,1.3-2,2.7-3,4.1c-1.2-0.9-2.2-1.7-3.4-2.5 c-0.9,0.9-1.9,1.8-2.9,2.7c-1.6-1.2-3-2.3-4.7-3.6C741.2,216,742.4,214.7,743.8,213.1"/><path class="st0" d="M487.7,240c0.9-0.7,1.7-1.5,2.6-2.3c1.6,0.4,2.4,1.9,4,2.9c-1.3,1.5-2.4,2.7-3.4,3.8c-1.4,0.1-2-1-3.4-1.3 c-2.4,2.2-4.6,1.7-6.5-1.5c0.8-1.1,1.8-2.4,2.8-3.7C485.4,237.9,486,239.6,487.7,240"/><path class="st0" d="M604.9,265.2c1.5-0.5,2.6-0.4,3.9-0.1c0.5,3.1-0.1,6.1-0.5,9.3h-2.6C605.5,271.3,605.2,268.3,604.9,265.2"/><path class="st0" d="M709.1,239.5c-1,1.4-2,2.5-3.5,3.4c-1.3-1-2.5-2-3.8-3c0.4-1.8,2.1-2.4,3-4.1 C706.4,237.1,707.7,238.3,709.1,239.5"/><path class="st0" d="M584.9,205.4c1.2,1.1,2.4,2.2,3.6,3.3c-0.8,1.6-1.8,2.6-3,3.7c-1.6-0.9-2.8-2.1-4.2-3.6 C582.4,207.6,583.2,206.2,584.9,205.4"/><path class="st0" d="M798.6,265.5c-3,1.8-3.9,5.8-8.1,5.3C792.2,265.8,793.6,264.8,798.6,265.5"/><path class="st0" d="M272.1,232.1c-1.2,1.5-2.1,2.7-3.2,4c-1.4-1.2-2.6-2.3-3.9-3.5c0.8-1.3,1.9-2.1,3.1-3 C269.3,230.3,270.5,231.1,272.1,232.1"/><path class="st0" d="M434.2,267.1c-0.1,1.7-1,2.5-2.5,2.6c-1.6,0.1-2.8-0.5-2.9-2.3c0-1.6,1.1-2.2,2.6-2.3 C433,265.1,433.9,265.7,434.2,267.1"/><path class="st0" d="M729.5,267.5c-0.1,1.7-1.2,2.2-2.6,2.3c-1.6,0-2.8-0.8-2.7-2.5c0.1-1.6,1.3-2.1,2.8-2.1 C728.5,265.2,729.5,265.8,729.5,267.5"/><path class="st0" d="M758.7,265.1c1.5,0,2.6,0.6,2.7,2.2c0.1,1.6-1,2.4-2.5,2.4c-1.6,0.1-2.9-0.7-2.9-2.4 C756.1,265.8,757.2,265.1,758.7,265.1"/><path class="st0" d="M298,269.8c-1.4-0.3-2.6-0.7-2.5-2.4c0.1-1.9,1.4-2.3,2.9-2.2c1.5,0.1,2.5,0.8,2.4,2.5 C300.6,269.2,299.3,269.6,298,269.8"/></g></svg>